<svg width="100" height="100" viewBox="0 0 100 100" fill="none" xmlns="http://www.w3.org/2000/svg">
<rect width="100" height="100" fill="#3CB7B4"/>
<path fill-rule="evenodd" clip-rule="evenodd" d="M49.5 21C52.02 21 54.1312 22.6225 55.4962 23.9684C57.0487 25.4987 58.545 27.5748 59.8462 29.9791C61.5262 33.095 62.9812 36.9484 63.7987 41.2554C66.0639 40.0955 68.4504 39.1806 70.9162 38.5267C72.765 38.051 74.565 37.7892 76.1625 37.8261C77.55 37.8593 79.665 38.1284 81.1875 39.6256C82.7663 41.178 83.1075 43.4864 82.9988 45.5883C82.8938 47.5353 82.3875 49.7846 81.555 52.1114C80.5198 54.9587 79.1505 57.6775 77.475 60.2129C79.0795 60.8069 80.6237 61.5477 82.0875 62.4254C84.4125 63.8488 87 65.9986 87 68.9375C87 70.2466 86.4638 71.3049 85.9913 71.9981C84.45 74.2844 81.795 75.7778 79.3275 76.8951C75.4725 78.6393 70.2525 80 64.5 80C58.6875 80 53.4 78.6135 49.5 76.8177C45.6 78.6135 40.3125 80 34.5 80C28.7475 80 23.5275 78.6393 19.6725 76.8951C17.205 75.7778 14.55 74.2844 13.0088 72.0018C12.3726 71.1005 12.0217 70.0344 12 68.9375C12 65.9986 14.5875 63.8487 16.9125 62.4291C18.3762 61.5502 19.9204 60.8082 21.525 60.2129C19.8495 57.6775 18.4802 54.9586 17.445 52.1114C16.6125 49.7846 16.1062 47.5389 16.0012 45.5883C15.8887 43.4864 16.23 41.178 17.8125 39.6256C19.335 38.1284 21.45 37.8556 22.8375 37.8261C24.435 37.7892 26.235 38.051 28.0837 38.5267C30.5496 39.1806 32.936 40.0955 35.2013 41.2554C35.9373 37.3228 37.2709 33.5214 39.1575 29.9791C40.455 27.5748 41.9512 25.4987 43.5075 23.9684C44.8687 22.6225 46.9763 21 49.5 21ZM72.5438 66.3599C70.2177 68.7476 67.6076 70.8511 64.77 72.625C69.2625 72.5808 73.3125 71.5003 76.1888 70.1986C77.145 69.7635 77.9212 69.3321 78.5137 68.9375C76.7137 67.7428 74.625 66.9463 72.5438 66.3599ZM26.4562 66.3599C24.375 66.9499 22.29 67.7428 20.4863 68.9375C21.0788 69.3321 21.855 69.7635 22.8112 70.1986C25.6875 71.5003 29.7375 72.5808 34.23 72.625C31.3921 70.85 28.7821 68.7452 26.4562 66.3562V66.3599ZM50.1862 29.1752C49.5487 28.5483 49.4513 28.5483 48.8138 29.1752C47.9063 30.0713 46.8262 31.5057 45.78 33.4379C43.3015 38.1409 42.0053 43.3594 42 48.6563C42.0055 53.9531 43.3017 59.1716 45.78 63.8746C46.8262 65.8068 47.91 67.2449 48.8175 68.1373C49.4512 68.7642 49.5487 68.7642 50.1862 68.1373C51.0937 67.2449 52.1737 65.8068 53.22 63.8746C55.6983 59.1716 56.9945 53.9531 57 48.6563C56.9947 43.3594 55.6985 38.1409 53.22 33.4379C52.1737 31.5057 51.0937 30.0713 50.1862 29.1752ZM23.4937 45.2084C23.55 46.2704 23.8537 47.8044 24.5175 49.6629C25.845 53.3726 28.4287 57.8861 32.3962 61.7874C34.341 63.6947 36.51 65.3671 38.8575 66.7693C36.1073 61.3573 34.6212 55.4096 34.5075 49.3606C31.5075 47.4799 28.56 46.2704 26.1862 45.662C25.3061 45.4242 24.4042 45.2723 23.4937 45.2084ZM75.5062 45.2084C74.8312 45.2453 73.9237 45.3781 72.8137 45.662C70.44 46.2704 67.4925 47.4799 64.4925 49.3606C64.3784 55.4083 62.8922 61.3547 60.1425 66.7656C62.4897 65.3644 64.6587 63.6933 66.6038 61.7874C70.5713 57.8861 73.155 53.3726 74.4787 49.6629C75.1462 47.8044 75.45 46.2704 75.5062 45.2084Z" fill="#F9F8F8"/>
</svg>
