<svg width="42" height="42" viewBox="0 0 42 42" fill="none" xmlns="http://www.w3.org/2000/svg">
<path fill-rule="evenodd" clip-rule="evenodd" d="M20.6667 0C21.7867 0 22.725 0.733333 23.3317 1.34167C24.0217 2.03333 24.6867 2.97167 25.265 4.05833C26.0117 5.46667 26.6583 7.20833 27.0217 9.155C28.0284 8.63073 29.0891 8.21721 30.185 7.92167C31.0067 7.70667 31.8067 7.58833 32.5167 7.605C33.1333 7.62 34.0733 7.74167 34.75 8.41833C35.4517 9.12 35.6033 10.1633 35.555 11.1133C35.5083 11.9933 35.2833 13.01 34.9133 14.0617C34.4532 15.3485 33.8447 16.5774 33.1 17.7233C33.8131 17.9918 34.4994 18.3266 35.15 18.7233C36.1833 19.3667 37.3333 20.3383 37.3333 21.6667C37.3333 22.2583 37.095 22.7367 36.885 23.05C36.2 24.0833 35.02 24.7583 33.9233 25.2633C32.21 26.0517 29.89 26.6667 27.3333 26.6667C24.75 26.6667 22.4 26.04 20.6667 25.2283C18.9333 26.04 16.5833 26.6667 14 26.6667C11.4433 26.6667 9.12333 26.0517 7.41 25.2633C6.31333 24.7583 5.13333 24.0833 4.44833 23.0517C4.16562 22.6443 4.00964 22.1624 4 21.6667C4 20.3383 5.15 19.3667 6.18333 18.725C6.83386 18.3278 7.52019 17.9924 8.23333 17.7233C7.48866 16.5774 6.8801 15.3485 6.42 14.0617C6.05 13.01 5.825 11.995 5.77833 11.1133C5.72833 10.1633 5.88 9.12 6.58333 8.41833C7.26 7.74167 8.2 7.61833 8.81667 7.605C9.52667 7.58833 10.3267 7.70667 11.1483 7.92167C12.2443 8.21722 13.3049 8.63075 14.3117 9.155C14.6388 7.37752 15.2315 5.65939 16.07 4.05833C16.6467 2.97167 17.3117 2.03333 18.0033 1.34167C18.6083 0.733333 19.545 0 20.6667 0ZM30.9083 20.5017C29.8745 21.5808 28.7145 22.5316 27.4533 23.3333C29.45 23.3133 31.25 22.825 32.5283 22.2367C32.9533 22.04 33.2983 21.845 33.5617 21.6667C32.7617 21.1267 31.8333 20.7667 30.9083 20.5017ZM10.425 20.5017C9.5 20.7683 8.57333 21.1267 7.77167 21.6667C8.035 21.845 8.38 22.04 8.805 22.2367C10.0833 22.825 11.8833 23.3133 13.88 23.3333C12.6187 22.5311 11.4587 21.5798 10.425 20.5V20.5017ZM20.9717 3.695C20.6883 3.41167 20.645 3.41167 20.3617 3.695C19.9583 4.1 19.4783 4.74833 19.0133 5.62167C17.9118 7.74728 17.3357 10.1059 17.3333 12.5C17.3358 14.8941 17.9119 17.2527 19.0133 19.3783C19.4783 20.2517 19.96 20.9017 20.3633 21.305C20.645 21.5883 20.6883 21.5883 20.9717 21.305C21.375 20.9017 21.855 20.2517 22.32 19.3783C23.4215 17.2527 23.9976 14.8941 24 12.5C23.9976 10.1059 23.4215 7.74728 22.32 5.62167C21.855 4.74833 21.375 4.1 20.9717 3.695ZM9.10833 10.9417C9.13333 11.4217 9.26833 12.115 9.56333 12.955C10.1533 14.6317 11.3017 16.6717 13.065 18.435C13.9293 19.297 14.8934 20.0529 15.9367 20.6867C14.7144 18.2406 14.0538 15.5524 14.0033 12.8183C12.67 11.9683 11.36 11.4217 10.305 11.1467C9.91382 11.0392 9.51299 10.9705 9.10833 10.9417ZM32.225 10.9417C31.925 10.9583 31.5217 11.0183 31.0283 11.1467C29.9733 11.4217 28.6633 11.9683 27.33 12.8183C27.2793 15.5518 26.6188 18.2394 25.3967 20.685C26.4399 20.0517 27.4039 19.2964 28.2683 18.435C30.0317 16.6717 31.18 14.6317 31.7683 12.955C32.065 12.115 32.2 11.4217 32.225 10.9417Z" fill="black"/>
<path d="M0.024 39L3.864 30.6H4.74L8.58 39H7.644L4.116 31.116H4.476L0.948 39H0.024ZM1.536 36.756L1.8 36.036H6.684L6.948 36.756H1.536ZM11.423 39.06C10.903 39.06 10.411 38.988 9.94697 38.844C9.48297 38.692 9.11897 38.504 8.85497 38.28L9.23897 37.608C9.49497 37.8 9.82297 37.968 10.223 38.112C10.623 38.248 11.043 38.316 11.483 38.316C12.083 38.316 12.515 38.224 12.779 38.04C13.043 37.848 13.175 37.596 13.175 37.284C13.175 37.052 13.099 36.872 12.947 36.744C12.803 36.608 12.611 36.508 12.371 36.444C12.131 36.372 11.863 36.312 11.567 36.264C11.271 36.216 10.975 36.16 10.679 36.096C10.391 36.032 10.127 35.94 9.88697 35.82C9.64697 35.692 9.45097 35.52 9.29897 35.304C9.15497 35.088 9.08297 34.8 9.08297 34.44C9.08297 34.096 9.17897 33.788 9.37097 33.516C9.56297 33.244 9.84297 33.032 10.211 32.88C10.587 32.72 11.043 32.64 11.579 32.64C11.987 32.64 12.395 32.696 12.803 32.808C13.211 32.912 13.547 33.052 13.811 33.228L13.439 33.912C13.159 33.72 12.859 33.584 12.539 33.504C12.219 33.416 11.899 33.372 11.579 33.372C11.011 33.372 10.591 33.472 10.319 33.672C10.055 33.864 9.92297 34.112 9.92297 34.416C9.92297 34.656 9.99497 34.844 10.139 34.98C10.291 35.116 10.487 35.224 10.727 35.304C10.975 35.376 11.243 35.436 11.531 35.484C11.827 35.532 12.119 35.592 12.407 35.664C12.703 35.728 12.971 35.82 13.211 35.94C13.459 36.052 13.655 36.216 13.799 36.432C13.951 36.64 14.027 36.916 14.027 37.26C14.027 37.628 13.923 37.948 13.715 38.22C13.515 38.484 13.219 38.692 12.827 38.844C12.443 38.988 11.975 39.06 11.423 39.06ZM15.5903 39V32.7H16.4423V39H15.5903ZM16.0223 31.308C15.8463 31.308 15.6983 31.248 15.5783 31.128C15.4583 31.008 15.3983 30.864 15.3983 30.696C15.3983 30.528 15.4583 30.388 15.5783 30.276C15.6983 30.156 15.8463 30.096 16.0223 30.096C16.1983 30.096 16.3463 30.152 16.4663 30.264C16.5863 30.376 16.6463 30.516 16.6463 30.684C16.6463 30.86 16.5863 31.008 16.4663 31.128C16.3543 31.248 16.2063 31.308 16.0223 31.308ZM22.761 39V37.608L22.725 37.38V35.052C22.725 34.516 22.573 34.104 22.269 33.816C21.973 33.528 21.529 33.384 20.937 33.384C20.529 33.384 20.141 33.452 19.773 33.588C19.405 33.724 19.093 33.904 18.837 34.128L18.453 33.492C18.773 33.22 19.157 33.012 19.605 32.868C20.053 32.716 20.525 32.64 21.021 32.64C21.837 32.64 22.465 32.844 22.905 33.252C23.353 33.652 23.577 34.264 23.577 35.088V39H22.761ZM20.589 39.06C20.117 39.06 19.705 38.984 19.353 38.832C19.009 38.672 18.745 38.456 18.561 38.184C18.377 37.904 18.285 37.584 18.285 37.224C18.285 36.896 18.361 36.6 18.513 36.336C18.673 36.064 18.929 35.848 19.281 35.688C19.641 35.52 20.121 35.436 20.721 35.436H22.893V36.072H20.745C20.137 36.072 19.713 36.18 19.473 36.396C19.241 36.612 19.125 36.88 19.125 37.2C19.125 37.56 19.265 37.848 19.545 38.064C19.825 38.28 20.217 38.388 20.721 38.388C21.201 38.388 21.613 38.28 21.957 38.064C22.309 37.84 22.565 37.52 22.725 37.104L22.917 37.692C22.757 38.108 22.477 38.44 22.077 38.688C21.685 38.936 21.189 39.06 20.589 39.06ZM26.5099 39V30.96L26.8939 31.368H24.5299V30.6H27.3739V39H26.5099ZM32.7298 39.072C32.0818 39.072 31.5058 38.904 31.0018 38.568C30.4978 38.224 30.1018 37.736 29.8138 37.104C29.5258 36.464 29.3818 35.696 29.3818 34.8C29.3818 33.904 29.5258 33.14 29.8138 32.508C30.1018 31.868 30.4978 31.38 31.0018 31.044C31.5058 30.7 32.0818 30.528 32.7298 30.528C33.3778 30.528 33.9538 30.7 34.4578 31.044C34.9618 31.38 35.3578 31.868 35.6458 32.508C35.9418 33.14 36.0898 33.904 36.0898 34.8C36.0898 35.696 35.9418 36.464 35.6458 37.104C35.3578 37.736 34.9618 38.224 34.4578 38.568C33.9538 38.904 33.3778 39.072 32.7298 39.072ZM32.7298 38.28C33.2258 38.28 33.6578 38.148 34.0258 37.884C34.3938 37.612 34.6818 37.22 34.8898 36.708C35.0978 36.188 35.2018 35.552 35.2018 34.8C35.2018 34.048 35.0978 33.416 34.8898 32.904C34.6818 32.384 34.3938 31.992 34.0258 31.728C33.6578 31.456 33.2258 31.32 32.7298 31.32C32.2498 31.32 31.8218 31.456 31.4458 31.728C31.0698 31.992 30.7778 32.384 30.5698 32.904C30.3618 33.416 30.2578 34.048 30.2578 34.8C30.2578 35.552 30.3618 36.188 30.5698 36.708C30.7778 37.22 31.0698 37.612 31.4458 37.884C31.8218 38.148 32.2498 38.28 32.7298 38.28ZM38.7911 39V30.96L39.1751 31.368H36.8111V30.6H39.6551V39H38.7911Z" fill="black"/>
</svg>
