<svg width="36" height="36" viewBox="0 0 36 36" fill="none" xmlns="http://www.w3.org/2000/svg">
<g clip-path="url(#clip0_608_2)">
<path d="M18 36C27.9411 36 36 27.9411 36 18C36 8.05887 27.9411 0 18 0C8.05887 0 0 8.05887 0 18C0 27.9411 8.05887 36 18 36Z" fill="#88C9F9"/>
<path d="M2.812 25.375C2.75 24.375 2.75 24.188 2.75 23C2.75 21.812 3.312 22 3.875 21.438C4.438 20.876 4.313 20.813 5.25 20.197C6.187 19.581 5.688 18.876 5.625 18.501C5.562 18.126 5 18.438 4.062 18.562C3.124 18.686 3.438 18.25 2.875 18C2.312 17.75 2.063 17.375 1.687 16.25C1.311 15.125 1.249 14.812 1.375 13.875C1.501 12.938 1.938 13.812 2 14.812C2.062 15.812 2.938 15.437 2.938 16.062C2.938 16.687 4.188 17.374 4.5 17.562C4.812 17.75 5.688 16.624 6 16.312C6.312 16 6.688 15.562 6.812 15.312C6.936 15.062 8.5 14.874 8.812 14.874C9.124 14.874 9.874 15.812 9.874 16.249C9.874 16.686 10.249 17.874 10.562 18.561C10.875 19.248 11.562 19.373 12.187 19.873C12.812 20.373 13.125 19.935 13.125 19.935C13.125 19.935 12.875 18.873 12.875 17.997C12.875 17.121 13.625 16.372 13.625 16.372C13.625 16.372 14.813 17.247 14.875 17.497C14.937 17.747 15.875 18.622 15.937 19.059C15.999 19.496 16.499 20.059 17.42 20.184C18.341 20.309 17.687 19.122 17.999 18.309C18.311 17.496 18.749 17.371 19.311 17.247C19.873 17.123 20.311 16.622 20.686 16.122C21.061 15.622 21.748 14.934 21.686 14.372C21.624 13.81 21.436 13.434 21.186 12.747C20.936 12.06 21.936 11.809 22.374 10.997C22.812 10.185 22.374 10.997 23.374 10.747C24.374 10.497 23.936 10.497 24.124 10.122C24.312 9.747 24.436 9.372 24.249 8.684C24.062 7.996 23.374 8.684 22.687 8.684C22 8.684 22.938 7.75 23 7C23.062 6.25 23.938 6.438 24.562 6.375C25.186 6.312 25.374 7.187 25.562 7.375C25.75 7.563 27.687 6.125 28.187 5.437C28.687 4.749 27.75 4.938 28 4.648C28.25 4.358 26.5 4.299 25.812 4.188C25.124 4.077 23.375 4 22.688 3.576C22.001 3.152 19.376 3.472 18.688 3.813C18 4.154 17.563 3.784 17.25 3.313C16.937 2.842 15.625 3.078 15.25 2.813C14.875 2.548 14.5 3.25 14 3.438C13.5 3.626 13.312 3.688 12.688 3.313C12.064 2.938 12.875 2.5 12 2.188C11.414 1.979 10.712 2.101 9.62 2.077C3.902 5.092 0 11.087 0 18C0 21.42 0.971 24.605 2.627 27.327C2.935 26.809 2.858 26.11 2.812 25.375ZM17.312 24.188C17.75 24.25 19 24.188 18 23.376C17 22.564 16.438 23.188 16.562 22.251C16.686 21.314 15.937 21.313 15.937 21.313C15.937 22.001 15.437 22.751 15.937 23.438C16.437 24.125 16.875 24.125 17.312 24.188Z" fill="#5C913B"/>
<path d="M23.6876 13.75C22.6876 12.938 23.4376 13.188 23.5626 12.25C23.6876 11.312 22.9376 11.312 22.9376 11.312C22.9376 12 22.4376 12.75 22.9376 13.437C23.4376 14.124 21.9376 14.687 22.3756 14.749C22.8136 14.811 24.6876 14.562 23.6876 13.75ZM19.8076 23.5C20.4276 24.188 20.1876 23.5 20.9996 23.188C21.8116 22.876 20.3116 22.188 19.8116 21.813C19.3116 21.438 18.8146 21.424 18.3776 22.251C17.8816 23.188 19.1876 22.812 19.8076 23.5ZM27.1246 24.75C26.8126 24.375 26.1246 24.188 25.3746 24.205C24.6246 24.223 24.6866 23.375 23.9366 23.437C23.1866 23.499 22.6506 22.933 22.3116 22.758C21.5746 22.378 22.0616 23.249 22.3116 24.204C22.5616 25.159 23.4996 24.436 24.3736 24.936C25.2476 25.436 25.3116 24.748 26.1236 24.998C26.9356 25.248 27.2486 25.81 28.0276 25.748C28.8066 25.686 27.4376 25.125 27.1246 24.75ZM25.4996 27.5C25.1876 26.875 24.2736 26.312 23.8986 25.995C23.5236 25.678 22.9366 25.571 22.4366 25.755C21.9366 25.939 21.6246 25.755 21.3746 25.26C21.1246 24.765 20.6866 24.938 20.3126 25C19.9386 25.062 18.4376 25.688 17.5626 26.125C16.6876 26.562 16.2896 26.942 15.7156 27.5C14.8176 28.374 15.3126 27.812 15.7156 28.375C16.1186 28.937 15.2736 30.687 15.2116 31.687C15.1496 32.687 16.8136 31.375 17.4386 31.249C18.0636 31.123 17.8796 30.749 18.3796 30.374C18.8796 29.999 19.2046 29.911 19.7536 30.411C20.3026 30.911 21.0216 31.374 21.0216 31.936C21.0216 32.498 23.0006 33.436 23.7506 33.061C24.5006 32.686 24.9386 31.936 25.6256 31.311C26.3126 30.686 26.0636 29.499 26.2506 28.749C26.4376 27.999 25.8116 28.125 25.4996 27.5Z" fill="#5C913B"/>
</g>
<defs>
<clipPath id="clip0_608_2">
<rect width="36" height="36" fill="white"/>
</clipPath>
</defs>
</svg>
